<?xml version="1.0" encoding="UTF-8" standalone="no"?>
<!-- Created with Inkscape (http://www.inkscape.org/) -->

<svg
   width="24"
   height="24"
   viewBox="0 0 6.35 6.3499999"
   version="1.1"
   id="svg5"
   inkscape:version="1.2.2 (b0a8486541, 2022-12-01)"
   sodipodi:docname="six-senses.svg"
   inkscape:export-filename="six-senses-192.png"
   inkscape:export-xdpi="96"
   inkscape:export-ydpi="96"
   xmlns:inkscape="http://www.inkscape.org/namespaces/inkscape"
   xmlns:sodipodi="http://sodipodi.sourceforge.net/DTD/sodipodi-0.dtd"
   xmlns="http://www.w3.org/2000/svg"
   xmlns:svg="http://www.w3.org/2000/svg">
  <sodipodi:namedview
     id="namedview7"
     pagecolor="#000000"
     bordercolor="#000000"
     borderopacity="0.25"
     inkscape:showpageshadow="2"
     inkscape:pageopacity="0"
     inkscape:pagecheckerboard="0"
     inkscape:deskcolor="#d1d1d1"
     inkscape:document-units="mm"
     showgrid="true"
     inkscape:zoom="19.02887"
     inkscape:cx="-8.4345523"
     inkscape:cy="12.664966"
     inkscape:window-width="2048"
     inkscape:window-height="1252"
     inkscape:window-x="0"
     inkscape:window-y="0"
     inkscape:window-maximized="1"
     inkscape:current-layer="layer1" />
  <defs
     id="defs2">
    <rect
       x="0"
       y="0"
       width="1889.7638"
       height="1889.7638"
       id="rect3623" />
  </defs>
  <g
     inkscape:label="Layer 1"
     inkscape:groupmode="layer"
     id="layer1"
     style="display:inline">
    <g
       aria-label="6S"
       id="text347"
       style="font-size:4.96177px;font-family:Inter;-inkscape-font-specification:'Inter, @opsz=32.0,wght=900';font-variation-settings:'opsz' 32, 'wght' 900;text-align:center;text-anchor:middle;display:inline;fill:#ffffff;fill-opacity:1;fill-rule:evenodd;stroke-width:0.0191805">
      <path
         d="m 1.5650898,5.0380866 q -0.3706791,0 -0.6614078,-0.1211369 Q 0.61537603,4.79339 0.41186593,4.5583843 0.21077856,4.3233785 0.10417804,3.9866178 2.4656765e-7,3.6474343 2.4656765e-7,3.2161867 2.4656765e-7,2.7776709 0.10660078,2.4263737 0.2132013,2.0750765 0.4167114,1.8255343 0.6202215,1.5759922 0.91095022,1.4451643 1.2016789,1.3119136 1.5699353,1.3119136 q 0.399752,0 0.7001717,0.1502098 0.3028424,0.1477871 0.4821251,0.399752 0.1792827,0.2495422 0.2083556,0.5596528 H 2.0351012 Q 2.0036056,2.2495137 1.870355,2.1501814 1.7395271,2.0484264 1.5335942,2.0484264 q -0.2107783,0 -0.3488744,0.1090232 -0.1356734,0.1090233 -0.20351014,0.3101107 -0.065414,0.2010873 -0.065414,0.4821251 h 0.004845 Q 1.015128,2.814012 1.136265,2.7267934 1.2574019,2.6395747 1.4076118,2.5983882 q 0.1526325,-0.041187 0.3319153,-0.041187 0.3682563,0 0.6541396,0.1574781 0.2883059,0.157478 0.4506295,0.4312476 0.1647462,0.2737695 0.1647462,0.6274894 0,0.3779474 -0.1865509,0.6638306 -0.1841282,0.2834605 -0.511198,0.4433613 -0.324647,0.157478 -0.7462037,0.1574784 z M 1.5553989,4.282192 q 0.1477871,0 0.2592331,-0.065414 0.1138687,-0.065414 0.1792827,-0.1792827 0.065414,-0.1162915 0.065414,-0.2640786 0,-0.1477871 -0.065414,-0.2616558 Q 1.9285007,3.3954694 1.814632,3.3300554 1.703186,3.2646415 1.5553989,3.2646415 q -0.1090233,0 -0.2010874,0.038764 -0.089641,0.036341 -0.157478,0.1041778 -0.065414,0.067837 -0.1041778,0.1623235 -0.036341,0.092064 -0.036341,0.2035101 0,0.1477871 0.062991,0.2640786 0.065414,0.1138688 0.1792827,0.1792827 0.1138688,0.065414 0.2568105,0.065414 z"
         style="display:inline;fill:#ffffff;fill-opacity:1;stroke-width:0.0191804"
         id="path293" />
      <path
         d="m 4.8115604,5.0380866 q -0.4990843,0 -0.845536,-0.1453643 Q 3.6195727,4.7473579 3.44029,4.4663202 3.2610073,4.1828597 3.2610073,3.7782622 h 0.9521365 q 0.00727,0.1453644 0.082373,0.2495422 0.077528,0.1041777 0.2107783,0.1599007 0.1356734,0.055723 0.3173788,0.055723 0.1599008,0 0.2786151,-0.038764 0.1187142,-0.041187 0.1841281,-0.111446 0.067837,-0.072682 0.067837,-0.167169 0,-0.087219 -0.062991,-0.1526326 Q 5.2282716,3.7080028 5.0974437,3.659548 4.9666158,3.6110932 4.7631057,3.5723294 L 4.4045402,3.5044927 Q 3.8812286,3.4051604 3.6050363,3.1362363 3.328844,2.8673122 3.328844,2.4651375 q 0,-0.344029 0.1865509,-0.6032621 Q 3.7019458,1.6026423 4.0338611,1.457278 4.3657764,1.3119136 4.8042922,1.3119136 q 0.4506295,0 0.7752766,0.1429416 Q 5.9042159,1.5977968 6.0834986,1.8667209 6.2627813,2.135645 6.274895,2.5135923 H 5.3494086 Q 5.3324494,2.3246186 5.1895078,2.2155954 5.0489889,2.1065721 4.8236741,2.1065721 q -0.1405188,0 -0.2495421,0.041187 -0.1090233,0.038764 -0.1720145,0.1090232 -0.060569,0.067837 -0.060569,0.1599008 0,0.087219 0.055723,0.1477871 0.055723,0.060569 0.1744373,0.1066006 0.1211369,0.043609 0.3076878,0.077528 l 0.2907288,0.0533 q 0.3101106,0.058146 0.5330026,0.1477871 0.2253148,0.089641 0.3682564,0.2180465 0.1429416,0.1284052 0.2107783,0.2979969 0.067837,0.1695918 0.067837,0.3852156 0,0.3779473 -0.1817055,0.6444486 -0.1792825,0.2640781 -0.5233114,0.404597 -0.344029,0.1380961 -0.8334224,0.1380961 z"
         style="display:inline;fill:#ffffff;fill-opacity:1;stroke-width:0.0191804"
         id="path295" />
    </g>
  </g>
</svg>
